<?xml version="1.0" encoding="utf-8"?>
<!-- Generator: Adobe Illustrator 16.0.1, SVG Export Plug-In . SVG Version: 6.00 Build 0)  -->
<!DOCTYPE svg PUBLIC "-//W3C//DTD SVG 1.1//EN" "http://www.w3.org/Graphics/SVG/1.1/DTD/svg11.dtd">
<svg version="1.1" id="Capa_1" xmlns="http://www.w3.org/2000/svg" xmlns:xlink="http://www.w3.org/1999/xlink" x="0px" y="0px"
	 width="18px" height="36px" viewBox="-392.5 598.5 18 36" enable-background="new -392.5 598.5 18 36" xml:space="preserve">
<g>
	<rect x="-392.5" y="616.501" fill="#FFFED5" width="18" height="17.999"/>
	<g>
		<path d="M-377.09,604.643v8.501c0,1.11-0.902,2.01-2.009,2.01h-10.044c-1.109,0-2.008-0.899-2.008-2.01v-10.043
			c0-1.109,0.899-2.009,2.008-2.009h8.501l-2.008,2.009h-6.494v10.043h10.044v-6.49L-377.09,604.643z M-378.632,600.503
			l-0.711,0.711l2.131,2.131l0.709-0.711L-378.632,600.503z M-377.212,599.083l-0.711,0.71l2.131,2.132l0.709-0.711
			L-377.212,599.083z M-386.444,608.316l2.13,2.13l6.391-6.392l-2.13-2.13L-386.444,608.316z M-387.135,611.136h2.009l-2.009-2.01
			V611.136z"/>
	</g>
	<g>
		<path fill="#228C43" d="M-377.093,622.646v8.504c0,1.11-0.899,2.01-2.009,2.01h-10.049c-1.11,0-2.01-0.899-2.01-2.01v-10.048
			c0-1.108,0.9-2.009,2.01-2.009h8.504l-2.008,2.009h-6.496v10.048h10.049v-6.493L-377.093,622.646z M-378.635,618.505l-0.711,0.711
			l2.131,2.131l0.712-0.71L-378.635,618.505z M-377.215,617.085l-0.708,0.709l2.131,2.132l0.709-0.71L-377.215,617.085z
			 M-386.45,626.322l2.131,2.132l6.396-6.396l-2.133-2.133L-386.45,626.322z M-387.141,629.142h2.01l-2.01-2.01V629.142z"/>
	</g>
</g>
</svg>
